<svg version="1.1" xmlns="http://www.w3.org/2000/svg" style="display: block;" viewBox="0 0 2048 2048" width="512" height="512" preserveAspectRatio="none">
<path transform="translate(0,0)" fill="rgb(254,254,254)" d="M 695.255 85.4422 C 708.147 85.0309 721.047 84.8836 733.945 85.0002 C 894.143 86.4917 1074.34 133.511 1190.78 250.415 C 1230.28 290.076 1261.73 343.098 1274.17 397.525 C 1281.73 430.561 1280.35 462.848 1280.33 496.477 L 1280.28 588.44 C 1280.29 676.396 1281.34 766.615 1280.17 854.37 C 1297.71 853.299 1315.28 852.851 1332.85 853.026 C 1537.9 855.811 1802.07 939.922 1868.73 1160.4 C 1880.12 1198.1 1878.2 1243.57 1878.19 1282.76 L 1878.12 1376.57 C 1878.11 1446.49 1878.43 1516.94 1878.12 1586.55 C 1877.75 1668.76 1836.48 1748.35 1777.27 1804.25 C 1650.08 1924.32 1472 1965.21 1302.25 1962.63 C 1219.71 1961.78 1098.77 1939.89 1024.73 1904.36 C 953.199 1935.85 855.645 1957.05 777.473 1961.53 C 608.285 1971.23 413.794 1932.25 282.879 1819.05 C 219.575 1764.31 173.697 1687.56 170.657 1603.75 C 169.576 1573.96 169.905 1543.6 169.916 1513.69 L 169.964 1357.76 L 169.957 873.714 L 169.932 574.23 L 169.898 488.389 C 169.898 465.43 169.084 437.146 173.101 414.662 C 207.512 222.072 413.167 124.568 587.925 96.0854 C 625.548 89.9538 657.929 87.6543 695.255 85.4422 z M 1331.93 1438.09 C 1446.68 1436.56 1578.25 1405.17 1662.23 1322.56 C 1723.02 1262.77 1718.32 1190.38 1656.32 1133.68 C 1565.82 1050.92 1433.65 1023.14 1314.48 1024.54 C 1288.3 1025.56 1262.35 1026.33 1236.13 1029.97 C 1144.68 1042.66 1046.23 1074.46 980.463 1142.02 C 916.859 1207.36 931.632 1281.88 998.509 1337.6 C 1089.26 1413.22 1216.67 1438.74 1331.93 1438.09 z M 737.543 653.929 C 856.902 647.879 986.023 624.816 1073.28 533.989 C 1129.28 475.689 1113.94 407.3 1055.62 358.402 C 982.182 295.634 889.168 270.109 794.964 259.598 C 768.188 256.61 741.175 258.352 714.999 256.54 C 691.915 257.499 669.134 258.2 645.871 261.022 C 557.657 271.723 465.125 298.845 396.114 357.046 C 366.34 383.074 340.542 418.499 342.316 459.73 C 343.787 493.932 365.57 525.326 390.158 547.363 C 481.43 629.163 618.746 654.898 737.543 653.929 z M 341.993 1104.57 C 342.881 1144.35 340.345 1188.26 343.265 1227.56 C 345.335 1255.41 370.533 1288.29 390.411 1306.03 C 477.935 1385.6 615.887 1413.33 731.097 1411.92 C 743.228 1411.77 756.453 1410.16 768.189 1408.53 C 767.721 1368.67 767.574 1328.81 767.749 1288.96 C 767.746 1261.55 766.822 1228.51 769.306 1201.77 C 652.234 1211.7 534.518 1192.66 426.547 1146.33 C 409.347 1139.09 392.462 1131.13 375.937 1122.46 C 365.224 1116.84 352.918 1109.22 341.993 1104.57 z M 342.16 725.023 L 342.082 799.76 C 341.983 855.274 342.814 880.146 385.166 921.908 C 467.403 1003 611.225 1034.11 723.11 1032.9 C 753.139 1032.58 832.948 1028.69 859.05 1018.05 C 871.767 1012.86 886.469 994.452 898.035 985.599 C 939.035 954.217 981.918 928.465 1029.42 908.133 C 1041.87 902.803 1055.19 897.024 1068.25 893.5 C 1080.83 888.935 1096.61 884.925 1109.71 881.18 C 1106.93 848.7 1109.02 811.638 1108.29 778.721 C 1108.1 770.015 1107.78 733.394 1108.94 726.836 C 1104.67 725.14 1078.64 741.634 1072.01 744.952 C 1044.01 759.165 1015.19 771.684 985.688 782.442 C 820.766 841.463 619.801 841.498 455.966 778.849 C 431.35 769.545 407.226 758.987 383.688 747.217 C 376.001 743.283 347.828 727.07 342.16 725.023 z M 342.03 1483.54 C 342.219 1510.11 342.232 1536.67 342.069 1563.23 C 342.053 1576.54 341.343 1593.58 343.209 1606.4 C 350.426 1656 397.211 1696.6 438.173 1720.97 C 553.124 1789.37 705.296 1803.81 835.144 1782.15 C 838.183 1781.66 842.168 1781.48 844.278 1779.51 C 835.132 1766.32 819.202 1748.8 811.096 1735.01 C 784.32 1689.46 767.222 1634.28 768.03 1581.53 C 660.581 1591.92 535.777 1571.08 436.37 1529.76 C 402.486 1515.67 374.371 1500.49 342.03 1483.54 z M 938.55 1506.79 C 942.05 1551.66 931.042 1605.95 957.772 1644.63 C 1028.95 1747.62 1170.71 1783.37 1288.9 1790.81 C 1417.64 1797.63 1579.8 1766.41 1670.75 1666.73 C 1672.54 1664.77 1674.31 1662.41 1675.88 1660.29 C 1718.23 1606.34 1703.28 1569.66 1705.86 1505.81 C 1691.82 1516.6 1654.92 1534.64 1638.42 1542.5 C 1506.3 1605.41 1357.08 1621.71 1212.79 1603.03 C 1140.37 1593.13 1069.89 1572.21 1003.79 1540.98 C 990.377 1534.65 979.716 1529.34 966.847 1522.02 C 959.775 1518 945.442 1509.52 938.55 1506.79 z"/>
</svg>