<?xml version="1.0" encoding="UTF-8"?>
<svg version="1.1" xmlns="http://www.w3.org/2000/svg" width="512" height="512">
<path d="M0 0 C73.26 0 146.52 0 222 0 C222 14.85 222 29.7 222 45 C163.59 45 105.18 45 45 45 C45 161.16 45 277.32 45 397 C161.16 397 277.32 397 397 397 C397 338.59 397 280.18 397 220 C411.85 220 426.7 220 442 220 C442 293.26 442 366.52 442 442 C296.14 442 150.28 442 0 442 C0 296.14 0 150.28 0 0 Z " fill="#FFFFFF" transform="translate(35,35)"/>
<path d="M0 0 C58.74 0 117.48 0 178 0 C178 58.74 178 117.48 178 178 C174 176 174 176 173 173 C171.6846659 172.29848848 170.34882408 171.63474075 169 171 C167.25 169.5 167.25 169.5 166 168 C166 167.34 166 166.68 166 166 C165.38125 165.7525 164.7625 165.505 164.125 165.25 C161.59641373 163.76259631 161.28160996 162.56321991 160 160 C158.06669397 158.90833725 158.06669397 158.90833725 156 158 C154.25 156.5 154.25 156.5 153 155 C153 154.34 153 153.68 153 153 C152.401875 152.731875 151.80375 152.46375 151.1875 152.1875 C149.00152146 151.00082594 147.58667406 149.90400887 146 148 C146 147.34 146 146.68 146 146 C145.401875 145.731875 144.80375 145.46375 144.1875 145.1875 C142.00152146 144.00082594 140.58667406 142.90400887 139 141 C139 140.34 139 139.68 139 139 C138.38125 138.7525 137.7625 138.505 137.125 138.25 C134.59641373 136.76259631 134.28160996 135.56321991 133 133 C131.06669397 131.90833725 131.06669397 131.90833725 129 131 C127.25 129.5 127.25 129.5 126 128 C126 127.34 126 126.68 126 126 C125.401875 125.731875 124.80375 125.46375 124.1875 125.1875 C122.00152146 124.00082594 120.58667406 122.90400887 119 121 C119 120.34 119 119.68 119 119 C116.03 118.01 116.03 118.01 113 117 C112.278125 117.7425 111.55625 118.485 110.8125 119.25 C108 122 108 122 105.4375 124 C102.85522947 126.11878607 101.05109914 128.37202922 99 131 C97.3545622 132.68762851 95.68711423 134.3540349 94 136 C93.195625 136.825 92.39125 137.65 91.5625 138.5 C89 141 89 141 85.9375 143.5 C83.18754889 145.84038392 81.2017103 148.15908348 79 151 C75.85394818 154.30738781 72.55838395 157.15329284 69 160 C66.31164749 162.55393489 63.87488743 165.15013508 61.5 168 C58.40987934 171.70814479 55.24607302 175.0274552 51.4375 178 C48.85522947 180.11878607 47.05109914 182.37202922 45 185 C43.3545622 186.68762851 41.68711423 188.3540349 40 190 C39.195625 190.825 38.39125 191.65 37.5625 192.5 C35 195 35 195 31.9375 197.5 C29.18754889 199.84038392 27.2017103 202.15908348 25 205 C23.3545622 206.68762851 21.68711423 208.3540349 20 210 C19.195625 210.825 18.39125 211.65 17.5625 212.5 C15 215 15 215 11.9375 217.5 C9.18754889 219.84038392 7.2017103 222.15908348 5 225 C3.3545622 226.68762851 1.68711423 228.3540349 0 230 C-0.825 230.845625 -1.65 231.69125 -2.5 232.5625 C-4.9241087 234.92600599 -7.18022233 237.12014822 -10 239 C-14.00517393 238.72630317 -16.02399934 236.37371766 -18.78442383 233.65136719 C-19.24503204 233.20083481 -19.70564026 232.75030243 -20.1802063 232.28611755 C-21.69717159 230.79760159 -23.20261348 229.29806465 -24.70703125 227.796875 C-25.75723981 226.75630692 -26.80767333 225.71596584 -27.85832214 224.67584229 C-30.05667589 222.49544038 -32.24874991 220.30893624 -34.43725586 218.11865234 C-37.24461984 215.31098295 -40.07207947 212.52454269 -42.90526295 209.74296188 C-45.07991302 207.60163392 -47.24082431 205.44684284 -49.39807701 203.28800201 C-50.43510453 202.2545182 -51.47700855 201.22590402 -52.52378273 200.2022934 C-53.98418203 198.77122513 -55.42391163 197.31915467 -56.86254883 195.86621094 C-57.68765457 195.04538025 -58.51276031 194.22454956 -59.36286926 193.37884521 C-61 191 -61 191 -60.90312195 188.32086182 C-59.66735645 185.14516559 -57.70967595 184.01650303 -55 182 C-53.64613064 180.34997172 -52.31321858 178.6825613 -51 177 C-48.5844822 174.46060949 -46.20100612 172.15688282 -43.4375 170 C-40.85522947 167.88121393 -39.05109914 165.62797078 -37 163 C-35.3545622 161.31237149 -33.68711423 159.6459651 -32 158 C-31.195625 157.175 -30.39125 156.35 -29.5625 155.5 C-27 153 -27 153 -23.9375 150.5 C-21.18754889 148.15961608 -19.2017103 145.84091652 -17 143 C-15.3545622 141.31237149 -13.68711423 139.6459651 -12 138 C-11.195625 137.175 -10.39125 136.35 -9.5625 135.5 C-7 133 -7 133 -3.9375 130.5 C-1.18754889 128.15961608 0.7982897 125.84091652 3 123 C6.14605182 119.69261219 9.44161605 116.84670716 13 114 C15.68835251 111.44606511 18.12511257 108.84986492 20.5 106 C23.59012066 102.29185521 26.75392698 98.9725448 30.5625 96 C33.14477053 93.88121393 34.94890086 91.62797078 37 89 C38.6454378 87.31237149 40.31288577 85.6459651 42 84 C42.804375 83.175 43.60875 82.35 44.4375 81.5 C47 79 47 79 50.0625 76.5 C52.80729997 74.16400002 54.81248459 71.84377003 57 69 C58.31494512 67.64852862 59.64264858 66.30887458 61 65 C60.05745792 60.71001421 60.05745792 60.71001421 57.0625 57.8125 C56.381875 57.544375 55.70125 57.27625 55 57 C53.25 55.5 53.25 55.5 52 54 C52 53.34 52 52.68 52 52 C51.401875 51.731875 50.80375 51.46375 50.1875 51.1875 C48.00152146 50.00082594 46.58667406 48.90400887 45 47 C45 46.34 45 45.68 45 45 C44.071875 44.62875 44.071875 44.62875 43.125 44.25 C40.59641373 42.76259631 40.28160996 41.56321991 39 39 C37.06669397 37.90833725 37.06669397 37.90833725 35 37 C33.25 35.5 33.25 35.5 32 34 C32 33.34 32 32.68 32 32 C31.401875 31.731875 30.80375 31.46375 30.1875 31.1875 C28.00152146 30.00082594 26.58667406 28.90400887 25 27 C25 26.34 25 25.68 25 25 C24.401875 24.731875 23.80375 24.46375 23.1875 24.1875 C21.00152146 23.00082594 19.58667406 21.90400887 18 20 C18 19.34 18 18.68 18 18 C17.38125 17.7525 16.7625 17.505 16.125 17.25 C13.59641373 15.76259631 13.28160996 14.56321991 12 12 C10.06669397 10.90833725 10.06669397 10.90833725 8 10 C6.25 8.5 6.25 8.5 5 7 C5 6.34 5 5.68 5 5 C4.0409375 4.5978125 4.0409375 4.5978125 3.0625 4.1875 C1 3 1 3 0 0 Z " fill="#FFFFFF" transform="translate(299,35)"/>
</svg>
