<svg version="1.1" xmlns="http://www.w3.org/2000/svg" viewBox="0 0 2050 2030" preserveAspectRatio="xMidYMid meet">
<path transform="translate(0,0)" fill="rgb(254,254,254)" d="M 834.855 383.935 C 841.979 388.366 868.912 490.898 873.297 507.143 C 695.792 561.628 536.242 669.503 453.777 840.489 C 432.202 885.222 424.069 937.08 387.464 973.121 C 362.289 997.907 328.776 1013.95 293.983 1019.43 C 279.529 1021.7 255.136 1018.5 243.671 1027.56 C 237.773 1032.22 236.58 1040.74 235.977 1047.79 C 234.381 1066.45 234.168 1183.58 237.998 1195.25 C 259.962 1262.18 440.811 1358.63 505.839 1394.67 C 541.091 1414.21 599.225 1442.43 624.702 1472.88 C 667.824 1524.42 662.231 1572.78 662.259 1635.08 C 662.271 1659.39 663.961 1685.04 661.646 1709.2 L 661.493 1710.72 C 672.782 1709.88 683.695 1710.48 694.997 1710.52 C 708.231 1710.57 721.08 1709.94 734.284 1711.01 C 761.706 1677.57 778.789 1630.88 819.445 1608.99 C 868.534 1582.56 910.599 1604.03 961.302 1612.45 C 1031.09 1624.5 1102.07 1628.1 1172.72 1623.18 C 1204.39 1620.97 1234.55 1616 1265.76 1610.95 C 1308.26 1604.07 1339.71 1587.13 1382.33 1601.86 C 1422 1615.57 1435.3 1640.82 1458.19 1673.15 C 1465.74 1683.82 1477.12 1699.34 1482.68 1710.29 C 1507.1 1711.27 1532.86 1710.54 1557.37 1710.15 C 1556 1682.49 1557.21 1653.96 1556.28 1627.52 C 1553.77 1553.01 1556.92 1497.27 1618.25 1445.98 C 1684.85 1390.28 1744.41 1311.25 1776.86 1230.95 C 1824.72 1113.18 1824.21 981.278 1775.43 863.878 C 1780.54 860.881 1785.05 859.232 1790.4 856.921 C 1824.64 842.146 1859.48 828.407 1893.68 813.593 C 1912.24 858.164 1925.28 899.694 1933.31 947.59 C 1935.94 963.248 1937.6 979.115 1939.89 994.91 C 1941.39 1018.57 1942.59 1042.57 1941.94 1065.84 C 1937.25 1241.82 1851.96 1408.71 1722.43 1525.94 C 1680.42 1563.96 1686.13 1550.5 1686.1 1607.18 L 1686.09 1685.99 L 1686.14 1784.33 C 1686.16 1800.55 1685.49 1824.31 1686.89 1839.87 C 1663.03 1838.1 1626.36 1839.1 1601.47 1839.09 C 1540.32 1839.47 1479.16 1839.48 1418.01 1839.14 C 1411.07 1831.76 1390.42 1801.54 1383.58 1791.44 C 1369.67 1770.89 1350.8 1746.55 1338.26 1725.84 C 1319.8 1732.5 1289.5 1737.7 1269.94 1740.9 C 1161.53 1759.12 1050.79 1758.66 942.533 1739.54 C 925.364 1736.48 896.76 1731.44 880.785 1726.24 C 857.737 1758.49 835.634 1791.52 812.525 1823.74 C 808.863 1828.85 805.357 1833.82 801.131 1838.5 C 777.318 1840.76 741.606 1838.84 716.409 1839.11 C 655.604 1839.74 594.201 1838.31 533.37 1839.62 C 531.824 1813.37 532.304 1786.29 532.299 1759.93 L 532.332 1644.47 C 532.345 1630.7 534.794 1572.1 531.134 1563.39 C 525.819 1550.73 493.124 1534.99 480.699 1527.96 C 366.957 1463.55 167.938 1369.07 118.3 1242.28 C 113.533 1230.1 109.772 1216.96 108.111 1203.97 C 104.22 1173.55 105.929 1142 105.883 1111.35 C 105.841 1083.72 104.047 1054.74 107.707 1027.37 C 109.753 1012.79 113.77 998.541 119.648 985.032 C 141.295 935.739 183.231 902.646 236.924 895.589 C 254.751 893.246 286.806 895.796 298.237 879.79 C 305.218 870.015 309.961 851.293 314.261 839.646 C 381.01 658.852 526.209 517.973 698.881 436.738 C 727.731 422.913 757.248 410.527 787.324 399.625 C 801.715 394.479 819.942 390.092 833.573 384.471 L 834.855 383.935 z"/>
<path transform="translate(0,0)" fill="rgb(254,254,254)" d="M 1364.51 174.344 C 1401.58 173.723 1431.54 206.589 1430.22 242.006 C 1430 247.789 1428.17 265.83 1434.16 267.749 C 1449.45 272.655 1465 277.751 1479.85 284.03 C 1522.13 301.512 1579.73 350.669 1589.58 397.455 C 1592.82 413.568 1589.55 430.308 1580.47 444.013 C 1570.58 458.913 1555.19 469.284 1537.67 472.851 C 1527.3 474.978 1519.53 474.184 1509.57 471.515 C 1470.03 460.916 1473.16 429.262 1441.01 408.885 C 1408.53 387.818 1367.86 385.305 1330.7 392.494 C 1284.26 401.478 1226.45 446.285 1281.56 489.904 C 1323.92 523.426 1370.98 511.554 1419.72 521.001 C 1497.26 536.027 1574.39 587.086 1594.96 667.024 C 1605.99 709.572 1599.46 754.766 1576.84 792.452 C 1544.7 846.907 1489.59 878.153 1429.8 893.37 C 1431.16 919.465 1431.54 943.681 1413.09 964.434 C 1400.99 978.047 1383.66 985.27 1365.62 986.26 C 1364.8 986.238 1363.98 986.2 1363.16 986.146 C 1346.17 985.001 1328.23 976.997 1317 963.999 C 1299.61 943.867 1299.32 917.548 1300.94 892.342 C 1288.98 891.901 1265.82 882.281 1254.49 877.937 C 1202.83 858.13 1111.23 780.533 1149.53 717.261 C 1158.15 702.904 1172.17 692.606 1188.45 688.673 C 1219.06 681.14 1246.79 695.126 1261.66 722.147 C 1297.93 788.084 1427.88 787.774 1467.35 725.116 C 1478.98 706.641 1465.77 683.462 1450.21 671.799 C 1428.77 654.593 1404.34 646.67 1377.08 645.28 C 1324.97 644.042 1279.44 636.619 1233.59 611.754 C 1090.38 534.087 1098.98 354.581 1244.92 286.749 C 1265.41 277.225 1280.5 273.089 1301.69 266.998 C 1297.17 215.842 1308.82 182.021 1364.51 174.344 z"/>
<path transform="translate(0,0)" fill="rgb(254,254,254)" d="M 625.782 896.485 C 696.252 888.62 759.715 939.472 767.402 1009.96 C 775.088 1080.45 724.076 1143.79 653.567 1151.29 C 583.31 1158.78 520.25 1107.99 512.591 1037.75 C 504.933 967.509 555.563 904.321 625.782 896.485 z"/>
</svg>
