<?xml version="1.0" encoding="UTF-8"?>
<svg version="1.1" xmlns="http://www.w3.org/2000/svg" viewBox="0 0 506 440" preserveAspectRatio="xMidYMid meet">
<path d="M0 0 C23.595 -0.0825 47.19 -0.165 71.5 -0.25 C78.92435547 -0.28641602 86.34871094 -0.32283203 93.99804688 -0.36035156 C103.12988281 -0.37841797 103.12988281 -0.37841797 107.41760254 -0.3817749 C110.38452349 -0.38547123 113.35115227 -0.40033807 116.31799316 -0.42230225 C120.12233323 -0.4500861 123.92625886 -0.45790183 127.73069096 -0.4522891 C129.75884804 -0.45400495 131.78696112 -0.47527697 133.81499481 -0.497715 C152.42789376 -0.41497697 169.99376345 5.47088067 184 18 C184.73605469 18.64324219 185.47210938 19.28648437 186.23046875 19.94921875 C201.04763922 33.74627421 208.35649045 52.06960024 210.28515625 71.9375 C210.81625219 87.45473785 205.50313026 102.10728884 197.13671875 114.94140625 C195.75830765 117.04577369 195.75830765 117.04577369 196 120 C197.63769284 121.36474404 199.27783154 122.72665204 200.9296875 124.07421875 C209.95710043 132.47141606 216.10059837 144.09863235 218.8125 156 C219.12767578 157.36813843 219.12767578 157.36813843 219.44921875 158.76391602 C223.51994668 177.72815542 220.96711171 197.81794397 210.8125 214.5625 C204.57589456 223.87760004 197.08460095 231.45852218 188 238 C187.24332031 238.54527344 186.48664063 239.09054687 185.70703125 239.65234375 C175.19996915 246.56905297 161.85552597 250.13031846 149.35610962 250.12025452 C148.03798594 250.12163201 146.71986225 250.12300951 145.36179543 250.12442875 C143.90737512 250.12088253 142.45295503 250.11724464 140.99853516 250.11352539 C139.4358845 250.11321887 137.87323371 250.11335287 136.31058311 250.11389065 C132.13404043 250.11411598 127.95752651 250.10832912 123.7809906 250.10128021 C119.85879426 250.09557624 115.93660485 250.0953166 112.0144043 250.09460449 C100.55126573 250.08936164 89.0881325 250.07540045 77.625 250.0625 C52.00875 250.041875 26.3925 250.02125 0 250 C0 167.5 0 85 0 0 Z M63 47 C61.74725277 49.50549445 61.87970376 51.19735632 61.88647461 54.00048828 C61.88655014 55.04141632 61.88662567 56.08234436 61.88670349 57.15481567 C61.89186478 58.28192963 61.89702606 59.40904358 61.90234375 60.5703125 C61.9037587 61.72167694 61.90517365 62.87304138 61.90663147 64.05929565 C61.91224284 67.74788986 61.9247973 71.43642405 61.9375 75.125 C61.94251353 77.62109288 61.94707669 80.1171867 61.95117188 82.61328125 C61.96221597 88.74220809 61.9789652 94.87109976 62 101 C70.56292068 101.11634546 79.12550583 101.20494177 87.68902397 101.25906086 C91.66634101 101.28504818 95.64311348 101.32024366 99.62011719 101.37719727 C103.46514284 101.4319102 107.30964793 101.46150205 111.15503311 101.47438622 C112.61496286 101.48355636 114.07486723 101.50146227 115.5345726 101.52865028 C124.46961924 101.68830674 131.34953334 100.96564372 139 96 C139.928125 95.443125 140.85625 94.88625 141.8125 94.3125 C146.75172518 89.09103338 149.65879956 82.39314223 150.0625 75.21484375 C149.8374275 67.23883707 147.27054151 61.01701306 142 55 C132.39835861 46.25764948 120.3309 46.70168284 108.01953125 46.8046875 C106.72552902 46.8075174 105.43152679 46.81034729 104.09831238 46.81326294 C100.69696997 46.82081404 97.29580477 46.84038655 93.89453125 46.8626709 C90.40822749 46.88331564 86.92189445 46.89230403 83.43554688 46.90234375 C76.6236262 46.92364271 69.81182166 46.95767237 63 47 Z M62 149 C61.97473352 156.52969652 61.95716859 164.0593822 61.94506836 171.58911133 C61.9400263 174.15291757 61.93319286 176.71672091 61.92456055 179.28051758 C61.91248936 182.95655021 61.90677058 186.63254498 61.90234375 190.30859375 C61.89718246 191.46274277 61.89202118 192.61689178 61.88670349 193.80601501 C61.88662796 194.86703934 61.88655243 195.92806366 61.88647461 197.02124023 C61.884254 197.96055893 61.88203339 198.89987762 61.87974548 199.86766052 C61.76157355 201.98363041 61.76157355 201.98363041 63 203 C65.00762348 203.10464433 67.01895921 203.13856007 69.02929688 203.14526367 C70.96766418 203.15483345 70.96766418 203.15483345 72.94519043 203.16459656 C74.36970991 203.16612623 75.79422989 203.16723966 77.21875 203.16796875 C78.67549676 203.17118179 80.13224318 203.1745459 81.58898926 203.17805481 C84.65243272 203.18405698 87.71584794 203.18589389 90.77929688 203.18530273 C94.6851523 203.18520171 98.59082346 203.19878624 102.49663544 203.21607494 C105.51144217 203.22726059 108.52620553 203.22921984 111.54103088 203.22869301 C112.97938159 203.22986586 114.41773368 203.23424821 115.85606384 203.24202538 C127.90836917 203.30102691 138.57898677 203.03485191 147.7265625 194.36328125 C153.6663201 187.8529558 155.5500305 181.68447953 155.27734375 172.92578125 C154.52135913 164.95067586 150.95449651 159.31777807 145 154 C139.14676053 150.27325854 133.99248852 148.87435866 127.05004883 148.88647461 C126.34735367 148.88632858 125.64465851 148.88618256 124.92066956 148.8860321 C122.59942532 148.88672843 120.27826146 148.89450774 117.95703125 148.90234375 C116.3470616 148.90420892 114.73709139 148.90563236 113.12712097 148.90663147 C108.89057853 148.91044882 104.6540704 148.92027245 100.4175415 148.93133545 C96.09412093 148.94156636 91.77069481 148.94613269 87.44726562 148.95117188 C78.96482801 148.96189541 70.48241827 148.97896247 62 149 Z " fill="#FFFFFF" transform="translate(93,112)"/>
<path d="M0 0 C31.68 0 63.36 0 96 0 C96 133.98 96 267.96 96 406 C64.32 406 32.64 406 0 406 C0 374 0 374 1 373 C21.46 373 41.92 373 63 373 C63 260.8 63 148.6 63 33 C42.54 33 22.08 33 1 33 C0.67 32.67 0.34 32.34 0 32 C0 21.44 0 10.88 0 0 Z " fill="#FFFFFF" transform="translate(310,34)"/>
<path d="M0 0 C31.35 0 62.7 0 95 0 C95 10.89 95 21.78 95 33 C74.21 33 53.42 33 32 33 C32 145.2 32 257.4 32 373 C52.79 373 73.58 373 95 373 C95 383.89 95 394.78 95 406 C63.65 406 32.3 406 0 406 C0 272.02 0 138.04 0 0 Z " fill="#FFFFFF" transform="translate(0,34)"/>
<path d="M0 0 C6.26169217 4.4504589 11.10076281 10.14213217 13.55078125 17.4921875 C14.66793719 33.09574258 14.66793719 33.09574258 9.55078125 39.4921875 C7.30078125 41.9296875 7.30078125 41.9296875 5.55078125 43.4921875 C6.29328125 44.1934375 7.03578125 44.8946875 7.80078125 45.6171875 C13.40496554 51.47610744 15.20964819 55.43707924 15.05078125 63.3671875 C15.07398438 64.51380859 15.07398438 64.51380859 15.09765625 65.68359375 C15.05207308 72.39571593 12.97759002 77.33155798 8.91015625 82.62890625 C-0.21852432 91.42523195 -9.76626106 95.4803925 -22.63671875 95.8046875 C-34.48727778 95.3452151 -44.92285749 91.68670175 -53.69140625 83.50390625 C-59.42790336 76.938804 -60.48322614 71.18612102 -61.44921875 62.4921875 C-51.87921875 62.4921875 -42.30921875 62.4921875 -32.44921875 62.4921875 C-31.45921875 64.4721875 -30.46921875 66.4521875 -29.44921875 68.4921875 C-26.58059642 70.07129579 -23.70893077 70.43665578 -20.44921875 70.4921875 C-17.63288967 69.4360641 -15.57791099 68.62087974 -13.44921875 66.4921875 C-12.98202418 61.81208163 -12.98202418 61.81208163 -14.69921875 57.6171875 C-18.48367566 55.18432234 -22.80709113 55.23713643 -27.19921875 54.9296875 C-29.26171875 54.7853125 -31.32421875 54.6409375 -33.44921875 54.4921875 C-33.44921875 47.5621875 -33.44921875 40.6321875 -33.44921875 33.4921875 C-28.61523438 33.19921875 -28.61523438 33.19921875 -23.78125 32.90625 C-20.62226081 32.51369097 -18.27732555 31.92950686 -15.44921875 30.4921875 C-14.04986862 27.69348723 -14.1965647 25.58719958 -14.44921875 22.4921875 C-16.11993604 19.64214036 -17.53727099 19.46892842 -20.76171875 18.6171875 C-25.02518012 18.47266339 -26.9660385 19.06206174 -30.44921875 21.4921875 C-31.43921875 23.9671875 -31.43921875 23.9671875 -32.44921875 26.4921875 C-41.68921875 26.4921875 -50.92921875 26.4921875 -60.44921875 26.4921875 C-59.14703939 16.07475263 -56.04818177 7.53767663 -47.6015625 0.890625 C-33.68023588 -8.15444747 -14.14336342 -8.7070786 0 0 Z " fill="#FFFFFF" transform="translate(497.44921875,5.5078125)"/>
</svg>
