<?xml version="1.0" encoding="UTF-8"?>
<svg version="1.1" xmlns="http://www.w3.org/2000/svg" viewBox="0 0 506 510" preserveAspectRatio="xMidYMid meet">
<path d="M0 0 C5.88369311 3.55552207 10.43378808 8.98081975 12.5625 15.5 C12.78955078 18.91333008 12.78955078 18.91333008 12.7578125 22.76953125 C12.7549826 23.45053391 12.75215271 24.13153656 12.74923706 24.83317566 C12.73810525 26.99313455 12.71301457 29.15266794 12.6875 31.3125 C12.67746111 32.78319711 12.66833685 34.25390076 12.66015625 35.72460938 C12.63818913 39.31654286 12.6037082 42.90822985 12.5625 46.5 C13.15039307 46.48428955 13.73828613 46.4685791 14.34399414 46.45239258 C45.79643245 45.72550541 71.27999896 54.20024854 94.37817383 75.93212891 C112.70941486 93.67615378 124.41755395 118.51911791 124.84570312 144.18945312 C124.85537109 145.09630859 124.86503906 146.00316406 124.875 146.9375 C124.90400391 147.84048828 124.93300781 148.74347656 124.96289062 149.67382812 C125.0319601 157.01113178 123.46622419 162.1864062 118.59765625 167.7421875 C117.94667969 168.28101563 117.29570312 168.81984375 116.625 169.375 C115.97660156 169.92929688 115.32820313 170.48359375 114.66015625 171.0546875 C108.15892443 175.53412097 101.19109083 175.17463728 93.5625 174.5 C86.90290667 172.81914417 82.37702553 168.03621678 78.5625 162.5 C76.09835334 157.78785989 75.86548915 152.70053757 75.25 147.5 C73.14371436 131.82181515 68.00593716 118.0321375 55.41015625 107.82421875 C44.5635397 99.66043055 33.83857564 97.01512276 20.5625 95.5 C17.9225 95.17 15.2825 94.84 12.5625 94.5 C12.5625 131.46 12.5625 168.42 12.5625 206.5 C25.4325 206.5 38.3025 206.5 51.5625 206.5 C82.01832541 213.66607657 107.82512746 226.99854724 125.16259766 253.69921875 C139.54127703 276.95237861 144.88534194 306.01142154 139.43554688 332.9152832 C138.63145939 336.18011489 137.65120384 339.3152869 136.5625 342.5 C136.35351074 343.12825684 136.14452148 343.75651367 135.92919922 344.40380859 C130.61186621 360.06903011 122.12673791 372.79706058 110.5625 384.5 C109.91925781 385.21542969 109.27601563 385.93085938 108.61328125 386.66796875 C94.19280251 402.33968208 71.4314524 412.01139325 50.5625 414.5 C47.56254814 414.62432671 44.56850229 414.61714458 41.56640625 414.59765625 C40.73286118 414.5962413 39.8993161 414.59482635 39.04051208 414.59336853 C36.40197014 414.58781168 33.76351591 414.5752674 31.125 414.5625 C29.32617311 414.55747942 27.52734487 414.55291749 25.72851562 414.54882812 C21.33981042 414.53785643 16.95117004 414.52062196 12.5625 414.5 C12.58344727 415.3971875 12.60439453 416.294375 12.62597656 417.21875 C12.69457616 420.58099859 12.74450294 423.94249235 12.78222656 427.30517578 C12.80221295 428.75418917 12.82941197 430.20312325 12.86425781 431.65185547 C13.08470504 441.05976527 13.14103743 448.2751879 6.59765625 455.7421875 C5.94667969 456.28101563 5.29570312 456.81984375 4.625 457.375 C3.97660156 457.92929687 3.32820312 458.48359375 2.66015625 459.0546875 C-3.84107557 463.53412097 -10.80890917 463.17463728 -18.4375 462.5 C-25.09709333 460.81914417 -29.62297447 456.03621678 -33.4375 450.5 C-35.50844738 446.31871221 -35.67098079 442.86791539 -35.6328125 438.23046875 C-35.6299826 437.54946609 -35.62715271 436.86846344 -35.62423706 436.16682434 C-35.61310525 434.00686545 -35.58801457 431.84733206 -35.5625 429.6875 C-35.55246111 428.21680289 -35.54333685 426.74609924 -35.53515625 425.27539062 C-35.51318913 421.68345714 -35.4787082 418.09177015 -35.4375 414.5 C-36.49437012 414.52094727 -37.55124023 414.54189453 -38.64013672 414.56347656 C-42.6546409 414.63723642 -46.66908894 414.68228026 -50.68408203 414.71972656 C-52.40423735 414.73953887 -54.12432824 414.76659668 -55.84423828 414.80175781 C-82.99374155 415.34188836 -109.40737091 407.62570028 -129.36743164 388.50805664 C-130.72834989 387.17634563 -132.08310404 385.83834386 -133.4375 384.5 C-134.51064453 383.53513672 -134.51064453 383.53513672 -135.60546875 382.55078125 C-151.0802294 368.31153043 -162.3526429 344.04427598 -163.578125 323.09619141 C-163.67978089 320.27168241 -163.72162496 317.45115396 -163.75 314.625 C-163.77900391 313.66980469 -163.80800781 312.71460938 -163.83789062 311.73046875 C-163.90499442 304.2045202 -162.47168652 298.96247129 -157.47265625 293.2578125 C-156.49619141 292.44957031 -156.49619141 292.44957031 -155.5 291.625 C-154.85160156 291.07070313 -154.20320313 290.51640625 -153.53515625 289.9453125 C-147.03392443 285.46587903 -140.06609083 285.82536272 -132.4375 286.5 C-125.77790667 288.18085583 -121.25202553 292.96378322 -117.4375 298.5 C-114.97335334 303.21214011 -114.74048915 308.29946243 -114.125 313.5 C-112.01239004 329.22526008 -106.8395606 342.73291239 -94.42578125 353.140625 C-76.51111934 366.44991872 -57.64158651 365.57482973 -35.4375 366.5 C-35.4375 329.54 -35.4375 292.58 -35.4375 254.5 C-45.3375 254.5 -55.2375 254.5 -65.4375 254.5 C-70.97166205 253.7566051 -75.27671195 253.12231178 -80.4375 251.5 C-81.38955322 251.20198486 -81.38955322 251.20198486 -82.36083984 250.89794922 C-108.7083052 242.42027598 -131.62882379 224.20728527 -144.4765625 199.50195312 C-155.89693634 176.27902758 -160.3002722 147.33203032 -152.69921875 122.1796875 C-152.07466797 120.35824219 -152.07466797 120.35824219 -151.4375 118.5 C-151.10806396 117.53368652 -151.10806396 117.53368652 -150.77197266 116.54785156 C-141.7605147 90.71883195 -123.07114332 68.59055862 -98.421875 56.46875 C-85.99625243 50.66722937 -72.88574103 46.3452552 -59.0703125 46.40234375 C-58.05093094 46.40446617 -58.05093094 46.40446617 -57.01095581 46.40663147 C-54.86142388 46.41218482 -52.71199992 46.42472831 -50.5625 46.4375 C-49.09635568 46.44252104 -47.63020971 46.44708289 -46.1640625 46.45117188 C-42.58850717 46.46213889 -39.01301414 46.47937081 -35.4375 46.5 C-35.4689209 45.15421875 -35.4689209 45.15421875 -35.50097656 43.78125 C-35.56957616 40.41900141 -35.61950294 37.05750765 -35.65722656 33.69482422 C-35.67721295 32.24581083 -35.70441197 30.79687675 -35.73925781 29.34814453 C-35.95970504 19.94023473 -36.01603743 12.7248121 -29.47265625 5.2578125 C-28.49619141 4.44957031 -28.49619141 4.44957031 -27.5 3.625 C-26.85160156 3.07070313 -26.20320312 2.51640625 -25.53515625 1.9453125 C-18.47077988 -2.92213491 -7.84396301 -3.47595223 0 0 Z M-90.4375 110.5 C-102.17019111 122.56904144 -106.87211078 136.36921383 -106.80102539 152.84741211 C-106.54691163 165.15442378 -102.69336957 174.62395531 -95.4375 184.5 C-94.93734375 185.20769531 -94.4371875 185.91539062 -93.921875 186.64453125 C-85.01405366 198.0492419 -70.70334607 204.46376577 -56.625 206.25 C-49.57019617 206.58999055 -42.50049162 206.5 -35.4375 206.5 C-35.4375 169.54 -35.4375 132.58 -35.4375 94.5 C-57.11751357 94.5 -73.96411907 95.70468227 -90.4375 110.5 Z M12.5625 254.5 C12.5625 291.46 12.5625 328.42 12.5625 366.5 C47.05505885 366.96060064 47.05505885 366.96060064 75.5625 350.5 C87.29519111 338.43095856 91.99711078 324.63078617 91.92602539 308.15258789 C91.67191163 295.84557622 87.81836957 286.37604469 80.5625 276.5 C80.06234375 275.79230469 79.5621875 275.08460938 79.046875 274.35546875 C71.23542163 264.35444133 58.84077592 257.92106849 46.5625 255.5 C35.28053527 254.37180353 23.90073423 254.5 12.5625 254.5 Z " fill="#FFFFFF" transform="translate(267.4375,25.5)"/>
</svg>
