<?xml version="1.0" encoding="UTF-8"?>
<svg version="1.1" xmlns="http://www.w3.org/2000/svg" viewBox="0 0 506 506" preserveAspectRatio="xMidYMid meet">
<path d="M0 0 C0.70703064 0.00126892 1.41406128 0.00253784 2.14251709 0.00384521 C31.50832645 0.10399073 61.80742886 4.80892821 89.109375 15.94140625 C91.82001475 16.95630541 94.45635272 17.76446093 97.23828125 18.5390625 C102.49119358 20.08655806 107.08953811 22.36910886 111.875 25 C112.70410889 25.44722412 113.53321777 25.89444824 114.38745117 26.35522461 C116.0185044 27.23625825 117.64758553 28.12095526 119.27441406 29.00976562 C121.04709333 29.97493547 122.83068652 30.92003542 124.6171875 31.859375 C130.51043594 34.97212937 136.10452035 38.4578799 141.66918945 42.11743164 C144.52191144 43.98964554 147.33674735 45.75521131 150.4375 47.1875 C150.4375 47.8475 150.4375 48.5075 150.4375 49.1875 C151.4275 49.5175 152.4175 49.8475 153.4375 50.1875 C153.4375 50.8475 153.4375 51.5075 153.4375 52.1875 C154.7575 52.5175 156.0775 52.8475 157.4375 53.1875 C157.4375 53.8475 157.4375 54.5075 157.4375 55.1875 C158.5203125 55.55875 158.5203125 55.55875 159.625 55.9375 C164.42874137 58.07249616 167.76734894 61.51734894 171.4375 65.1875 C172.345 65.88875 173.2525 66.59 174.1875 67.3125 C175.30125 68.240625 175.30125 68.240625 176.4375 69.1875 C176.4375 69.8475 176.4375 70.5075 176.4375 71.1875 C177.7575 71.8475 179.0775 72.5075 180.4375 73.1875 C180.4375 73.8475 180.4375 74.5075 180.4375 75.1875 C181.30375 75.55875 181.30375 75.55875 182.1875 75.9375 C184.76689979 77.37049988 186.49871592 78.97174676 188.4375 81.1875 C188.4375 81.8475 188.4375 82.5075 188.4375 83.1875 C189.0975 83.1875 189.7575 83.1875 190.4375 83.1875 C193.4375 86.64903846 193.4375 86.64903846 193.4375 89.1875 C194.0975 89.1875 194.7575 89.1875 195.4375 89.1875 C195.4375 89.8475 195.4375 90.5075 195.4375 91.1875 C196.0975 91.1875 196.7575 91.1875 197.4375 91.1875 C199.23289556 93.2772227 200.90811442 95.36592082 202.5625 97.5625 C203.03042969 98.16578125 203.49835938 98.7690625 203.98046875 99.390625 C207.4375 103.92608874 207.4375 103.92608874 207.4375 106.1875 C208.4275 106.5175 209.4175 106.8475 210.4375 107.1875 C211.578125 109.12109375 211.578125 109.12109375 212.6875 111.625 C214.38615721 115.21328771 216.17336865 118.33354361 218.5625 121.5 C229.92908227 137.40335264 236.93622476 155.89971897 243.4375 174.1875 C243.788125 175.15606934 244.13875 176.12463867 244.5 177.12255859 C247.20650583 184.85745382 248.96981564 192.65666298 250.5625 200.6875 C250.81386719 201.91597656 251.06523437 203.14445313 251.32421875 204.41015625 C254.65913725 220.87522505 256.62455314 236.66397113 256.62280273 253.46435547 C256.62497672 255.78762501 256.64316368 258.11040843 256.66210938 260.43359375 C256.7196504 275.3117901 254.97494253 289.65258826 252.0625 304.25 C251.83973389 305.37212891 251.61696777 306.49425781 251.38745117 307.65039062 C250.74793586 310.83167527 250.09449963 314.00978879 249.4375 317.1875 C249.21006104 318.33001221 249.21006104 318.33001221 248.97802734 319.49560547 C245.20161889 338.20412472 237.42828259 356.60114331 228.40966797 373.36962891 C227.38746397 375.2810631 226.39706139 377.20684442 225.41015625 379.13671875 C221.98577246 385.77571312 218.33257334 392.04717709 213.9140625 398.08984375 C212.08656311 400.68605321 210.73158222 403.29484562 209.4375 406.1875 C208.7775 406.1875 208.1175 406.1875 207.4375 406.1875 C207.19 406.72890625 206.9425 407.2703125 206.6875 407.828125 C205.15761396 410.7157849 203.34599003 413.28526018 201.4375 415.9375 C200.73625 416.92234375 200.035 417.9071875 199.3125 418.921875 C198.69375 419.66953125 198.075 420.4171875 197.4375 421.1875 C196.7775 421.1875 196.1175 421.1875 195.4375 421.1875 C195.0353125 422.05375 195.0353125 422.05375 194.625 422.9375 C193.40820811 425.24300043 192.13416121 427.20806192 190.4375 429.1875 C189.7775 429.1875 189.1175 429.1875 188.4375 429.1875 C188.1075 430.1775 187.7775 431.1675 187.4375 432.1875 C186.7775 432.1875 186.1175 432.1875 185.4375 432.1875 C185.4375 432.8475 185.4375 433.5075 185.4375 434.1875 C184.7775 434.1875 184.1175 434.1875 183.4375 434.1875 C183.1075 435.1775 182.7775 436.1675 182.4375 437.1875 C181.7775 437.1875 181.1175 437.1875 180.4375 437.1875 C179.7775 438.5075 179.1175 439.8275 178.4375 441.1875 C177.7775 441.1875 177.1175 441.1875 176.4375 441.1875 C176.4375 441.8475 176.4375 442.5075 176.4375 443.1875 C175.7775 443.1875 175.1175 443.1875 174.4375 443.1875 C174.1075 444.1775 173.7775 445.1675 173.4375 446.1875 C171.45149663 447.5415932 169.44932457 448.87207624 167.4375 450.1875 C166.1690625 451.486875 166.1690625 451.486875 164.875 452.8125 C162.43336997 455.19152413 160.6533231 456.17681274 157.4375 457.1875 C157.4375 457.8475 157.4375 458.5075 157.4375 459.1875 C156.798125 459.290625 156.15875 459.39375 155.5 459.5 C154.4790625 459.8403125 154.4790625 459.8403125 153.4375 460.1875 C153.1075 461.1775 152.7775 462.1675 152.4375 463.1875 C151.7775 463.1875 151.1175 463.1875 150.4375 463.1875 C150.4375 463.8475 150.4375 464.5075 150.4375 465.1875 C149.42042969 465.71537109 149.42042969 465.71537109 148.3828125 466.25390625 C143.64869126 468.76521987 139.12789956 471.31553274 134.8125 474.5 C122.47585062 483.37373026 107.82539902 490.1099974 93.5234375 495.09765625 C91.3067287 495.88051923 89.10491832 496.70605451 86.9140625 497.55859375 C42.9230411 514.41117936 -5.99702994 516.08780845 -51.75 506.875 C-52.82118073 506.66120193 -52.82118073 506.66120193 -53.91400146 506.44308472 C-68.42092603 503.51727456 -82.26365016 499.32083724 -95.953125 493.66015625 C-99.443791 492.2359343 -102.96170106 490.92536563 -106.5 489.625 C-110.87158379 487.95304225 -114.68682718 486.09628609 -118.5625 483.48828125 C-120.87001027 481.9874982 -123.25305299 480.72195387 -125.6875 479.4375 C-130.94025736 476.61984444 -135.91468484 473.46113603 -140.87939453 470.17089844 C-143.43501655 468.48947239 -145.64387278 467.16037574 -148.5625 466.1875 C-150.75 464.25 -150.75 464.25 -152.5625 462.1875 C-152.5625 461.5275 -152.5625 460.8675 -152.5625 460.1875 C-153.8825 459.8575 -155.2025 459.5275 -156.5625 459.1875 C-156.5625 458.5275 -156.5625 457.8675 -156.5625 457.1875 C-157.6453125 456.81625 -157.6453125 456.81625 -158.75 456.4375 C-163.55374137 454.30250384 -166.89234894 450.85765106 -170.5625 447.1875 C-171.47 446.48625 -172.3775 445.785 -173.3125 445.0625 C-174.055 444.44375 -174.7975 443.825 -175.5625 443.1875 C-175.5625 442.5275 -175.5625 441.8675 -175.5625 441.1875 C-176.8825 440.5275 -178.2025 439.8675 -179.5625 439.1875 C-179.5625 438.5275 -179.5625 437.8675 -179.5625 437.1875 C-180.201875 436.919375 -180.84125 436.65125 -181.5 436.375 C-183.5625 435.1875 -183.5625 435.1875 -184.5625 432.1875 C-185.5525 431.8575 -186.5425 431.5275 -187.5625 431.1875 C-187.5625 430.5275 -187.5625 429.8675 -187.5625 429.1875 C-188.2225 429.1875 -188.8825 429.1875 -189.5625 429.1875 C-192.5625 425.72596154 -192.5625 425.72596154 -192.5625 423.1875 C-193.2225 423.1875 -193.8825 423.1875 -194.5625 423.1875 C-194.5625 422.5275 -194.5625 421.8675 -194.5625 421.1875 C-195.2225 421.1875 -195.8825 421.1875 -196.5625 421.1875 C-197.96518922 419.49258386 -199.28640346 417.729665 -200.5625 415.9375 C-201.26375 414.96296875 -201.965 413.9884375 -202.6875 412.984375 C-204.5625 410.1875 -204.5625 410.1875 -205.625 407.890625 C-206.50926622 405.82824642 -206.50926622 405.82824642 -209.5625 405.1875 C-210.7734375 403.1484375 -210.7734375 403.1484375 -211.9375 400.5625 C-213.52436499 397.1958381 -215.15121313 394.1735481 -217.375 391.1875 C-219.5625 388.1875 -219.5625 388.1875 -219.5625 386.1875 C-220.2225 386.1875 -220.8825 386.1875 -221.5625 386.1875 C-226.94473858 375.67465998 -232.07450454 365.11631627 -236.5625 354.1875 C-236.94696289 353.27226562 -237.33142578 352.35703125 -237.72753906 351.4140625 C-245.75865837 332.07407229 -250.10858349 312.74795029 -253.5625 292.1875 C-253.72218262 291.28805664 -253.88186523 290.38861328 -254.04638672 289.46191406 C-257.79834546 267.80180418 -257.4484439 241.77013933 -253.5625 220.1875 C-253.34174805 218.92583008 -253.12099609 217.66416016 -252.89355469 216.36425781 C-249.95597844 199.7633041 -246.8786141 183.56782234 -240.28222656 167.97314453 C-239.25714814 165.42992079 -238.51605686 162.81858313 -237.75 160.1875 C-235.12699425 152.09039528 -230.73440352 144.73903192 -226.68554688 137.28857422 C-225.33879724 134.76898131 -224.09842115 132.20641863 -222.875 129.625 C-220.75835418 125.31691522 -218.08832026 121.54139515 -215.27734375 117.66015625 C-212.73746899 113.99787669 -210.62956668 110.1311203 -208.5625 106.1875 C-207.9025 106.1875 -207.2425 106.1875 -206.5625 106.1875 C-206.29824219 105.61386719 -206.03398437 105.04023437 -205.76171875 104.44921875 C-204.49769517 102.06527851 -203.05462009 100.1100948 -201.375 98 C-200.75625 97.21882813 -200.1375 96.43765625 -199.5 95.6328125 C-198.860625 94.82585937 -198.22125 94.01890625 -197.5625 93.1875 C-195.78560011 90.8701264 -194.00996171 88.55183527 -192.23828125 86.23046875 C-190.45689881 84.05876008 -188.64449342 82.07443905 -186.5625 80.1875 C-185.9025 80.1875 -185.2425 80.1875 -184.5625 80.1875 C-184.294375 79.548125 -184.02625 78.90875 -183.75 78.25 C-182.5625 76.1875 -182.5625 76.1875 -179.5625 75.1875 C-179.27375 74.61 -178.985 74.0325 -178.6875 73.4375 C-176.06059571 68.18369142 -171.30863315 65.35158877 -166.5625 62.1875 C-165.42554688 61.03314453 -165.42554688 61.03314453 -164.265625 59.85546875 C-161.4502473 57.07670724 -158.51226933 54.82101495 -155.3125 52.5 C-151.33400047 49.86884666 -151.33400047 49.86884666 -148.5625 46.1875 C-146.98071289 45.28417969 -146.98071289 45.28417969 -144.97265625 44.359375 C-140.76948681 42.33586918 -136.91350069 39.96610186 -133 37.4375 C-108.89202755 22.1572416 -82.63954168 12.01630783 -54.75 6.125 C-53.56857422 5.86912109 -52.38714844 5.61324219 -51.16992188 5.34960938 C-34.0825107 1.70741598 -17.46810151 -0.03244466 0 0 Z M-22.5625 108.1875 C-22.8925 149.1075 -23.2225 190.0275 -23.5625 232.1875 C-64.4825 232.1875 -105.4025 232.1875 -147.5625 232.1875 C-147.5625 248.0275 -147.5625 263.8675 -147.5625 280.1875 C-106.6425 280.1875 -65.7225 280.1875 -23.5625 280.1875 C-23.2325 321.1075 -22.9025 362.0275 -22.5625 404.1875 C-7.3825 404.1875 7.7975 404.1875 23.4375 404.1875 C23.7675 363.2675 24.0975 322.3475 24.4375 280.1875 C65.3575 280.1875 106.2775 280.1875 148.4375 280.1875 C148.4375 264.3475 148.4375 248.5075 148.4375 232.1875 C107.5175 232.1875 66.5975 232.1875 24.4375 232.1875 C24.1075 191.2675 23.7775 150.3475 23.4375 108.1875 C8.2575 108.1875 -6.9225 108.1875 -22.5625 108.1875 Z " fill="#FFFFFF" transform="translate(255.5625,-0.1875)"/>
</svg>
