<?xml version="1.0" encoding="UTF-8"?>
<svg version="1.1" xmlns="http://www.w3.org/2000/svg" viewBox="0 0 2500 2500" preserveAspectRatio="xMidYMid meet">
<path d="M0 0 C0.89138672 0.12358887 1.78277344 0.24717773 2.70117188 0.37451172 C40.26314222 5.81111269 76.92090132 18.58998937 109 39 C110.08410156 39.68835938 111.16820312 40.37671875 112.28515625 41.0859375 C131.66516809 53.73920975 149.14914468 68.97913118 165.46948242 85.34008789 C166.35702713 86.22588028 167.24457184 87.11167267 168.15901184 88.02430725 C170.56151662 90.42319971 172.96179465 92.82427503 175.36089492 95.22656941 C177.88917666 97.75741061 180.41992885 100.28577968 182.95027161 102.81455994 C187.19414941 107.05662707 191.43593405 111.3007786 195.67651367 115.54614258 C200.56095079 120.43602722 205.44898904 125.32228988 210.33889884 130.20670134 C214.56013438 134.4233826 218.77939782 138.64202973 222.99705201 142.86229318 C225.50617819 145.37296852 228.01595161 147.88298684 230.52751732 150.391222 C233.3274603 153.18770995 236.12326241 155.98831584 238.91870117 158.78930664 C240.14778702 160.01535614 240.14778702 160.01535614 241.40170288 161.26617432 C242.55561272 162.42431389 242.55561272 162.42431389 243.73283386 163.60585022 C244.39183276 164.26522614 245.05083166 164.92460207 245.72980022 165.60395908 C247.60225559 167.58020792 249.37915032 169.59004244 251.15268809 171.65338641 C254.88131627 175.92206016 258.81062298 179.94536501 262.8271904 183.94185829 C263.96894954 185.08400001 263.96894954 185.08400001 265.13377452 186.2492153 C267.6786657 188.79374646 270.22712202 191.33467612 272.77557373 193.87564087 C274.62190483 195.72025923 276.46801064 197.56510312 278.31391072 199.41015279 C282.3245055 203.41820646 286.33693506 207.42441582 290.35058212 211.42941284 C296.31933581 217.3853397 302.28516184 223.34419262 308.25033328 229.30370703 C317.67379012 238.71812958 327.09897375 248.13082107 336.52536101 257.54230942 C351.4933572 272.48668063 366.45667971 287.43572439 381.41849834 302.38628012 C387.17916091 308.1425735 392.93995718 313.89873308 398.70073318 319.65491295 C399.66073649 320.61415347 399.66073649 320.61415347 400.64013381 321.59277258 C415.86918147 336.80969064 431.09934649 352.02549011 446.33007812 367.24072266 C446.9963491 367.90631847 447.66262007 368.57191427 448.34908107 369.25767965 C463.8902081 384.78301871 479.43240086 400.30728956 494.97692871 415.82922363 C495.64529133 416.49661498 496.31365395 417.16400633 497.00226998 417.85162165 C502.38965372 423.23115867 507.77707507 428.61065804 513.16450619 433.99014761 C535.39242465 456.18535952 557.61528464 478.38562545 579.83235215 500.59169919 C582.9719707 503.7297531 586.11165411 506.86774211 589.25138092 510.00568771 C589.86926518 510.6232232 590.48714944 511.24075869 591.12375746 511.87700738 C601.0540003 521.80132008 610.98965952 531.72019302 620.92746604 541.63693114 C630.92111547 551.60958372 640.90936452 561.5876187 650.8921437 571.57115276 C656.81723807 577.49635388 662.74647268 583.41733943 668.68180992 589.3322805 C673.12156814 593.75770817 677.55338176 598.19101336 681.98224869 602.62733929 C683.76896283 604.41462519 685.55820059 606.19939279 687.35027489 607.98130412 C722.61217682 643.05401843 744.36159193 683.42324001 745.25 734.0625 C744.71548399 762.59229212 737.78923125 790.00095768 724 815 C723.66274902 815.62181152 723.32549805 816.24362305 722.97802734 816.88427734 C702.57726557 854.11300493 667.140928 881.35592411 626.625 893.3125 C625.86098877 893.54283936 625.09697754 893.77317871 624.30981445 894.01049805 C607.73552627 898.61305948 590.9188851 899.44059832 573.82331848 899.37752342 C571.64698695 899.38066017 569.47065699 899.38510934 567.29433048 899.39073652 C561.34472609 899.40235202 555.39526896 899.39546412 549.44566713 899.38540266 C543.63147874 899.3785524 537.81731843 899.38594313 532.00313261 899.39283381 C519.97800479 899.40658079 507.95291516 899.40620977 495.92778397 899.39799118 C483.75167697 899.38972025 471.57559506 899.38801014 459.39948654 899.39420319 C458.6287372 899.3945907 457.85798787 899.39497822 457.06388249 899.39537748 C453.92443576 899.3969774 450.78498906 899.39862354 447.64554238 899.40032831 C418.44324538 899.41617438 389.2409652 899.41728212 360.03866577 899.40888596 C359.17434573 899.40863757 358.31002568 899.40838918 357.41951412 899.40813327 C356.55380232 899.40788448 355.68809053 899.40763569 354.79614505 899.40737936 C328.40369632 899.39980474 302.01125453 899.397858 275.61880493 899.4014473 C273.85028197 899.40167973 272.081759 899.4019112 270.31323604 899.40214171 C263.20597184 899.40307314 256.09870766 899.40402914 248.99144347 899.405021 C229.12467189 899.40777179 209.25790029 899.40948376 189.39112854 899.41037941 C188.03418912 899.41044082 188.03418912 899.41044082 186.64983678 899.41050346 C157.83185932 899.41173098 129.01388429 899.40835223 100.19590759 899.40183067 C99.26145635 899.40161993 98.32700511 899.40140918 97.36423717 899.40119205 C82.19011034 899.39775735 67.01598356 899.39409889 51.84185679 899.39042152 C-8.33753187 899.37585293 -68.5169005 899.37652913 -128.69628906 899.39111328 C-143.86282855 899.39477696 -159.02936805 899.39841016 -174.19590759 899.40183067 C-175.1298131 899.40204202 -176.06371861 899.40225336 -177.02592428 899.40247111 C-205.81432602 899.4089413 -234.6027261 899.41168218 -263.39112854 899.41037941 C-264.74706691 899.41031828 -264.74706691 899.41031828 -266.13039798 899.41025592 C-285.97523333 899.40931841 -305.8200685 899.40741736 -325.66490368 899.4046479 C-332.76574913 899.40366051 -339.86659459 899.40272126 -346.96744005 899.40179577 C-348.73388608 899.4015636 -350.5003321 899.40132741 -352.26677813 899.40108718 C-378.6510264 899.39750886 -405.03526683 899.40055095 -431.41951412 899.40813327 C-432.71599419 899.40850585 -432.71599419 899.40850585 -434.03866577 899.40888596 C-435.33274584 899.40925803 -435.33274584 899.40925803 -436.65296895 899.40963761 C-465.77238433 899.4179184 -494.89177957 899.41485603 -524.01119208 899.39904372 C-527.14062355 899.39738672 -530.27005503 899.3957766 -533.39948654 899.39420319 C-534.55148136 899.39361726 -534.55148136 899.39361726 -535.72674879 899.39301949 C-547.86796198 899.38711145 -560.00915003 899.39121228 -572.15036095 899.3995102 C-584.10005578 899.4074627 -596.04970838 899.40463011 -607.99939788 899.39046794 C-614.38666574 899.38333514 -620.77383875 899.3808843 -627.16110361 899.39168589 C-632.97998186 899.4014258 -638.79868171 899.39718935 -644.61754714 899.38214391 C-646.70146433 899.37914035 -648.78539652 899.38107305 -650.86930169 899.38876172 C-670.30128739 899.45532814 -688.55748817 897.2564918 -707 891 C-707.67514648 890.77441406 -708.35029297 890.54882812 -709.04589844 890.31640625 C-728.46213449 883.73589159 -745.49207294 873.41744996 -761 860 C-761.75966064 859.3510376 -761.75966064 859.3510376 -762.53466797 858.68896484 C-788.10784852 836.68926043 -805.40278839 806.45522485 -813.75 773.9375 C-813.94875732 773.17147461 -814.14751465 772.40544922 -814.35229492 771.61621094 C-817.43319029 758.96512752 -818.3855639 746.23837772 -818.3125 733.25 C-818.31034485 732.55345306 -818.3081897 731.85690613 -818.30596924 731.13925171 C-818.25026568 719.86797566 -817.62690559 708.99302882 -815 698 C-814.80664062 697.17564453 -814.61328125 696.35128906 -814.4140625 695.50195312 C-804.13600825 653.08911813 -777.65543985 624.48726939 -747.6104271 594.48195955 C-744.82617501 591.70026726 -742.04485022 588.9156504 -739.26313376 586.13142288 C-734.39784481 581.26253768 -729.53071823 576.39549567 -724.66235161 571.52968788 C-717.42297954 564.29411047 -710.18648322 557.05566196 -702.95053388 549.81666184 C-690.02574139 536.88661262 -677.09809992 523.95941485 -664.16923298 511.03343985 C-652.85794309 499.72466764 -641.5475857 488.41496384 -630.23815155 477.10433578 C-629.48735112 476.35345897 -628.73655069 475.60258216 -627.96299874 474.8289515 C-624.91514777 471.78078919 -621.86730033 468.73262335 -618.8194587 465.6844517 C-590.24645406 437.10839008 -561.67053746 408.535242 -533.09331177 379.96340167 C-507.7060783 354.58091601 -482.32143454 329.19584315 -456.93896484 303.80859375 C-428.41110831 275.27538315 -399.88163765 246.74378806 -371.34955859 218.21479976 C-368.30856434 215.17412623 -365.26757403 212.13344876 -362.22658539 209.09276962 C-361.47783207 208.34409538 -360.72907874 207.59542113 -359.95763593 206.82405979 C-348.65088297 195.5184443 -337.34536435 184.21159548 -326.04044342 172.9041481 C-313.19015596 160.05100313 -300.33808644 147.19964309 -287.48365602 134.35064144 C-280.28955922 127.15948269 -273.09684088 119.96695168 -265.90609896 112.77243821 C-261.10368592 107.96778406 -256.2994588 103.16494895 -251.49374864 98.36359266 C-248.75536937 95.6275933 -246.01778132 92.89081502 -243.28239003 90.15182807 C-240.33465771 87.20026048 -237.38307046 84.25257796 -234.43109512 81.30525398 C-233.58438183 80.45619952 -232.73766853 79.60714506 -231.86529726 78.73236167 C-227.06976848 73.95196773 -222.15215576 69.39298687 -217 65 C-216.07316406 64.19175781 -215.14632812 63.38351562 -214.19140625 62.55078125 C-155.75894501 12.80070653 -76.04961473 -10.5753768 0 0 Z " fill="currentColor" transform="translate(1287,801)"/>
</svg>
