<?xml version="1.0" encoding="UTF-8"?>
<svg version="1.1" xmlns="http://www.w3.org/2000/svg" viewBox="0 0 794 868" preserveAspectRatio="xMidYMid meet">
<path d="M0 0 C91.08 0 182.16 0 276 0 C276 91.08 276 182.16 276 276 C250.92 276 225.84 276 200 276 C199.67 228.15 199.34 180.3 199 131 C176.14492187 153.95949219 176.14492187 153.95949219 152.828125 177.3828125 C143.17743418 187.06415496 133.52600909 196.74474824 123.87109375 206.421875 C118.79908591 211.50562947 113.72726639 216.5895717 108.65576172 221.67382812 C108.02015355 222.31101878 107.38454539 222.94820944 106.72967637 223.60470891 C96.47846506 233.88199162 86.23791333 244.16983273 76.00128165 254.46163513 C65.48970436 265.02938976 54.96670132 275.58566581 44.43308139 286.13144958 C37.93749614 292.6352534 31.4509072 299.14776759 24.9756687 305.6718301 C20.53002877 310.14926999 16.07330379 314.61547774 11.607851 319.07315727 C9.03465976 321.64251855 6.46649656 324.2164094 3.91142845 326.8038044 C1.13370711 329.61640907 -1.66726557 332.40512317 -4.47064209 335.19216919 C-5.26445998 336.00346413 -6.05827787 336.81475907 -6.87615085 337.6506387 C-15.29298825 345.93618509 -24.7630461 351.05895401 -36.6875 351.25 C-52.19486787 351.05995873 -61.63198842 342.83508681 -72.10961914 332.23095703 C-73.08565832 331.25406971 -74.06236238 330.27784631 -75.03967285 329.30223083 C-77.667714 326.67504376 -80.28645877 324.03876941 -82.90352559 321.40065622 C-85.64871809 318.63659792 -88.4025168 315.88114002 -91.15538025 313.12472534 C-96.35665479 307.91415925 -101.55024019 302.69599951 -106.74104828 297.47500885 C-112.65536159 291.52706112 -118.57828536 285.58771909 -124.501917 279.64905381 C-136.67749226 267.44219508 -148.84231102 255.22467255 -161 243 C-164.37765602 244.46510261 -166.58392238 246.33507304 -169.17789078 248.93179512 C-170.00793633 249.75785857 -170.83798188 250.58392203 -171.69318032 251.4350177 C-172.59979275 252.34745582 -173.50640519 253.25989393 -174.44049072 254.19998169 C-175.41696908 255.17558801 -176.39388677 256.15075476 -177.37120605 257.12551868 C-180.0574533 259.80728807 -182.73741476 262.49526362 -185.41640806 265.18427682 C-188.30572997 268.08222458 -191.20081795 270.97440166 -194.09521484 273.86727905 C-199.1098053 278.88082011 -204.12071689 283.89801405 -209.12915802 288.91769791 C-216.37055369 296.17533816 -223.61745668 303.4274585 -230.86572167 310.67823754 C-242.62500816 322.44190277 -254.37982011 334.21002867 -266.13183594 345.98095703 C-277.54876527 357.41624053 -288.96779042 368.84942446 -300.38964844 380.27978516 C-301.0935285 380.98419067 -301.79740856 381.68859618 -302.52261832 382.41434731 C-306.0537422 385.94808123 -309.5849074 389.48177386 -313.11609316 393.01544595 C-342.4171391 422.33722995 -371.71093124 451.66625249 -401 481 C-404.73411919 479.25258746 -407.12190339 477.11990518 -410.04394531 474.18310547 C-410.53220795 473.69513489 -411.02047058 473.20716431 -411.52352905 472.70440674 C-413.12984962 471.09669725 -414.72897713 469.48202899 -416.328125 467.8671875 C-417.44298317 466.74859765 -418.55828487 465.63044971 -419.67401123 464.51272583 C-422.60470609 461.57440675 -425.52934422 458.63013045 -428.45275879 455.68457031 C-431.43882725 452.67801738 -434.43058859 449.67714118 -437.421875 446.67578125 C-443.28683456 440.78939314 -449.14540732 434.896699 -455 429 C-453.47167886 425.39533838 -451.33591867 423.08152972 -448.58355808 420.32070255 C-448.13037343 419.86341264 -447.67718879 419.40612272 -447.21027127 418.93497553 C-445.68530252 417.39866726 -444.15329703 415.86957569 -442.62123108 414.34034729 C-441.51735477 413.23130365 -440.41390889 412.12183144 -439.31085771 411.01196712 C-436.27412595 407.9590887 -433.23113086 404.91252075 -430.18705404 401.86696851 C-426.90655808 398.58277252 -423.63177151 395.29289164 -420.35617065 392.0038147 C-413.18987673 384.81034683 -406.01602327 377.62444967 -398.84053349 370.44015622 C-394.35981844 365.9539167 -389.88058067 361.46620421 -385.40160942 356.9782238 C-372.99995555 344.55218204 -360.596408 332.12803741 -348.18593693 319.71080112 C-346.99426193 318.51846743 -346.99426193 318.51846743 -345.77851268 317.30204618 C-344.98215793 316.50525486 -344.18580317 315.70846355 -343.36531645 314.88752705 C-341.75159785 313.27292151 -340.13788234 311.65831288 -338.52416992 310.04370117 C-337.72371097 309.24279936 -336.92325201 308.44189754 -336.09853672 307.61672597 C-323.13296738 294.64326318 -310.18095717 281.65635372 -297.23475499 268.66356719 C-283.94227471 255.32364352 -270.63855549 241.99501519 -257.32349771 228.67762607 C-249.84814497 221.20044056 -242.37769206 213.71850167 -234.91960335 206.22409248 C-228.56763847 199.84130331 -222.20546012 193.46891933 -215.82981492 187.10978026 C-212.5783256 183.86609657 -209.33183959 180.61779549 -206.09832954 177.35618019 C-203.13458281 174.36691015 -200.1571723 171.39197891 -197.1685515 168.42758357 C-196.09319828 167.35613664 -195.02283104 166.27965554 -193.95820535 165.19754869 C-184.79192089 155.89042851 -175.68295229 149.96421285 -162.3125 149.75 C-146.80513213 149.94004127 -137.36801158 158.16491319 -126.89038086 168.76904297 C-125.91434168 169.74593029 -124.93763762 170.72215369 -123.96032715 171.69776917 C-121.332286 174.32495624 -118.71354123 176.96123059 -116.09647441 179.59934378 C-113.35128191 182.36340208 -110.5974832 185.11885998 -107.84461975 187.87527466 C-102.64334521 193.08584075 -97.44975981 198.30400049 -92.25895172 203.52499115 C-86.34463841 209.47293888 -80.42171464 215.41228091 -74.498083 221.35094619 C-62.32250774 233.55780492 -50.15768898 245.77532745 -38 258 C-35.06166502 256.67387475 -32.98608527 255.2353655 -30.71229935 252.958395 C-30.08080734 252.3308851 -29.44931534 251.70337519 -28.79868722 251.05684984 C-28.11385884 250.36619578 -27.42903046 249.67554171 -26.72344971 248.96395874 C-25.98907614 248.23129402 -25.25470256 247.4986293 -24.49807525 246.74376261 C-22.03202144 244.28100999 -19.57319621 241.81116414 -17.11425781 239.34130859 C-15.35057294 237.57705974 -13.58644788 235.81325084 -11.82191467 234.04985046 C-8.02063022 230.24902184 -4.22243616 226.44514517 -0.42700958 222.6384697 C5.06054378 217.13466291 10.55361084 211.63638643 16.0480397 206.13944443 C24.9622129 197.22089388 33.87191053 188.29788606 42.77880859 179.37207031 C51.43108759 170.70143356 60.08547592 162.03291114 68.74267578 153.3671875 C69.28173683 152.82759045 69.82079788 152.28799341 70.37619412 151.73204494 C74.59201634 147.51206387 78.80796112 143.29220525 83.02394462 139.07238531 C103.68925929 118.38820296 124.34386663 97.69335908 145 77 C73.225 76.505 73.225 76.505 0 76 C0 50.92 0 25.84 0 0 Z " fill="#FFFFFF" transform="translate(487,187)"/>
</svg>
